<svg width="960" height="960" viewBox="0 0 960 960" fill="none" xmlns="http://www.w3.org/2000/svg">
<g clip-path="url(#clip0_38_4067)">
<path d="M499.214 500.581C499.929 502.737 498.454 504.937 497.047 506.719C491.692 513.537 476.785 539.131 468.809 536.307C463.783 534.526 450.169 501.818 449.375 498.358C463.908 494.603 478.1 495.306 492.996 497.158C495.481 497.461 498.42 498.21 499.214 500.581Z" fill="#171717"/>
<path d="M472.859 538.394C482.672 541.514 485.724 576.343 484.459 595.686L483.948 595.652L399.462 619.873C414.062 609.447 429.333 599.724 442.006 587.029C450.277 578.859 456.922 569.192 461.587 558.542C465.406 549.716 461.446 534.763 472.859 538.394Z" fill="url(#paint0_linear_38_4067)"/>
<path d="M483.943 595.652L484.454 595.686C484.305 598.805 483.891 601.906 483.217 604.955C479.087 621.291 470.647 636.085 460.232 649.46L459.517 648.904L320.576 690.551L320.394 690.381C344.148 664.115 370.654 640.477 399.457 619.872L483.943 595.652Z" fill="#171717"/>
<path d="M459.518 648.905L460.233 649.461C455.753 655.182 450.986 660.673 445.95 665.911C440.323 671.799 434.45 677.437 428.501 682.996C416.85 693.887 404.901 704.472 393.944 716.055C388.918 721.364 384.112 726.874 379.525 732.585L379.037 732.185L262.116 769.059C278.913 740.982 298.435 714.629 320.4 690.382L320.582 690.552L459.518 648.905Z" fill="url(#paint1_linear_38_4067)"/>
<path d="M427.718 390.785C427.384 393.178 427.662 395.617 428.527 397.873C429.392 400.129 430.816 402.129 432.664 403.685L433.05 404.422C431.933 405.157 430.729 405.752 429.465 406.191C426.05 407.303 421.765 406.599 419.765 403.616C419.08 402.474 418.704 401.173 418.676 399.842C418.649 398.511 418.969 397.195 419.606 396.026C420.92 393.69 422.948 391.837 425.392 390.739C426.044 390.421 426.711 390.137 427.392 389.888L427.718 390.785Z" fill="#171717"/>
<path d="M379.037 732.188L379.525 732.588C364.681 751.066 352.292 771.387 342.665 793.045L341.791 792.659L230.883 837.9L230.293 837.764C233.231 824.944 238.734 812.635 244.667 800.825C250.09 790.025 255.907 779.436 262.116 769.059L379.037 732.188Z" fill="#171717"/>
<path d="M338.944 801.812C336.04 809.016 333.445 816.345 331.161 823.798C325.069 843.686 320.724 865.264 306.554 880.498C286.954 901.588 253.054 905.366 235.115 927.898C238.178 902.792 226.901 877.844 228.172 852.579C228.444 847.588 229.154 842.63 230.294 837.763L230.884 837.899L341.792 792.655L342.666 793.041C341.372 795.935 340.131 798.859 338.944 801.812Z" fill="url(#paint2_linear_38_4067)"/>
<path d="M443.952 365.735C448.603 366.121 452.052 360.777 451.598 356.126C451.144 351.475 448.126 347.549 445.324 343.805C439.69 336.261 434.496 328.397 429.77 320.253C427.308 316.009 424.892 311.132 426.151 306.388C428.999 295.746 445.834 296.677 452.165 287.646" stroke="#171717" stroke-width="3.225" stroke-linecap="round" stroke-linejoin="round"/>
<path d="M417.666 333.187C415.666 328.978 414.466 324.973 411.666 321.774" stroke="#171717" stroke-width="3.225" stroke-linecap="round" stroke-linejoin="round"/>
<path d="M453.505 312.959C451.905 309.759 450.305 306.556 448.705 303.35" stroke="#171717" stroke-width="3.225" stroke-linecap="round" stroke-linejoin="round"/>
<path d="M476.331 468.725C472.315 443.743 468.809 412.193 483.751 391.784C487.971 386.021 493.576 381.006 495.751 374.199C498.224 366.518 495.785 358.225 493.357 350.522C484.224 321.547 475.088 292.569 465.948 263.586" stroke="#171717" stroke-width="3.225" stroke-linecap="round" stroke-linejoin="round"/>
<path d="M418.755 469.1C408.159 434.226 397.567 399.352 386.978 364.477C385.832 360.688 384.682 356.903 383.529 353.121C379.604 340.21 375.667 326.37 379.592 313.459C384.414 297.576 399.911 287.377 415.397 281.359C430.384 275.55 449.697 271.716 463.715 263.525C464.169 263.264 464.615 262.992 465.054 262.72" stroke="#171717" stroke-width="3.225" stroke-linecap="round" stroke-linejoin="round"/>
<path d="M497.047 506.719C498.454 504.938 499.929 502.737 499.214 500.581C498.42 498.21 495.482 497.461 492.997 497.155C478.097 495.306 463.909 494.602 449.376 498.355C450.17 501.815 463.784 534.523 468.81 536.304C476.785 539.131 491.692 513.537 497.047 506.719Z" stroke="#171717" stroke-width="3.225" stroke-linecap="round" stroke-linejoin="round"/>
<path d="M484.454 595.686C485.725 576.343 482.673 541.514 472.854 538.394C461.441 534.764 465.4 549.716 461.577 558.543C456.913 569.193 450.27 578.859 442 587.03C429.328 599.73 414.057 609.448 399.456 619.874C343.93 659.659 297.181 710.44 262.115 769.059C255.909 779.429 250.092 790.018 244.666 800.825C238.733 812.635 233.23 824.944 230.292 837.764C229.153 842.631 228.443 847.589 228.17 852.58C226.899 877.845 238.176 902.793 235.113 927.899C253.049 905.368 286.948 901.59 306.552 880.499C320.722 865.263 325.067 843.685 331.159 823.799C333.439 816.357 336.033 809.028 338.942 801.813C340.132 798.863 341.373 795.94 342.663 793.043C352.29 771.385 364.679 751.064 379.523 732.586C384.095 726.879 388.901 721.369 393.942 716.056C404.9 704.472 416.847 693.887 428.5 683C434.445 677.441 440.321 671.8 445.949 665.915C450.985 660.677 455.752 655.187 460.232 649.465C470.647 636.089 479.087 621.296 483.217 604.959C483.892 601.909 484.306 598.807 484.454 595.686V595.686Z" stroke="#171717" stroke-width="3.225" stroke-linecap="round" stroke-linejoin="round"/>
<path d="M465.054 262.723C468.046 241.975 468.008 220.903 464.941 200.167C464.499 197.206 463.965 194.154 462.332 191.636C460.699 189.118 457.692 187.246 454.754 187.847C451.192 188.584 449.254 192.347 447.913 195.747C442.523 209.437 438.964 223.778 437.328 238.4C437.022 241.225 434.934 245.094 432.518 243.607C431.463 242.949 431.191 241.565 431.032 240.34C430.124 233.473 429.217 226.617 428.309 219.772C427.909 216.8 427.492 213.748 425.995 211.15C424.498 208.552 421.627 206.521 418.655 206.918C413.3 207.633 411.871 214.633 411.78 220.044C411.647 227.135 411.518 234.225 411.394 241.316C411.337 243.971 410.694 247.386 408.07 247.851C406.039 248.203 404.349 246.444 402.556 245.423C397.439 242.507 390.598 246.058 387.876 251.288C385.154 256.518 385.414 262.712 385.743 268.588C382.54 266.502 378.734 265.542 374.925 265.859C371.116 266.176 367.521 267.752 364.707 270.338C361.893 272.925 360.02 276.375 359.383 280.143C358.747 283.912 359.383 287.786 361.192 291.153C356.655 290.957 352.199 292.403 348.642 295.226C345.085 298.049 342.665 302.061 341.827 306.524C340.988 310.987 341.787 315.603 344.076 319.525C346.366 323.447 349.993 326.412 354.292 327.876C347.428 334.286 343.174 343.714 343.979 353.084C344.784 362.454 351.047 371.384 359.941 374.412C368.835 377.44 381.428 373.119 385.841 364.812" stroke="#171717" stroke-width="3.225" stroke-linecap="round" stroke-linejoin="round"/>
<path d="M253.539 783.853C233.413 775.934 214.626 764.918 199.095 749.965C163.075 715.283 148.406 660.034 162.485 612.046C175.566 567.438 211.359 531.554 253.494 511.926C295.629 492.298 343.573 487.659 389.894 491.653" stroke="#171717" stroke-width="3.225" stroke-linecap="round" stroke-linejoin="round"/>
<path d="M429.079 683.609C485.191 682.709 537.366 685.197 593.025 692.379C601.647 693.491 611.325 695.34 616.101 702.612C617.978 705.678 619.037 709.174 619.175 712.766C619.334 715.677 619.311 718.594 619.107 721.502C618.323 736.319 617.541 751.136 616.759 765.951C616.271 775.174 615.545 784.988 611.903 793.281C610.543 796.475 608.661 799.419 606.333 801.994C595.333 813.994 576.768 814.088 560.5 813.282C501.722 810.4 442.944 807.511 384.166 804.614C369.1 803.877 353.977 803.128 338.945 801.814H338.888" stroke="#171717" stroke-width="3.225" stroke-linecap="round" stroke-linejoin="round"/>
<path d="M278.521 655.326C294.876 666.139 313.516 673.013 332.977 675.407" stroke="#171717" stroke-width="3.225" stroke-linecap="round" stroke-linejoin="round"/>
<path d="M389.894 491.653C378.368 485.005 386.286 477.948 390.926 474.772C395.566 471.596 401.534 471.372 407.161 471.244C411.041 471.152 414.921 471.073 418.801 470.983C437.985 470.552 457.169 470.124 476.354 469.701C486.825 469.462 497.3 469.228 507.779 469.001C513.145 468.887 519.033 468.943 523.14 472.392C529.368 477.633 528.132 487.379 526.34 495.321" stroke="#171717" stroke-width="3.225" stroke-linecap="round" stroke-linejoin="round"/>
<path d="M527.848 491.675C573.534 492.934 615.873 523.668 631.779 566.506C647.685 609.344 635.079 661.259 601.295 692.026" stroke="#171717" stroke-width="3.225" stroke-linecap="round" stroke-linejoin="round"/>
<path d="M618.891 713.015C618.982 712.924 619.084 712.845 619.175 712.765C632.469 700.655 648.113 691.41 665.133 685.605C667.895 684.5 670.848 683.952 673.823 683.994C676.773 684.21 679.813 685.718 681.061 688.418C683.148 692.918 679.575 697.918 676.081 701.442C668.247 709.326 659.586 716.344 650.249 722.373" stroke="#171717" stroke-width="3.225" stroke-linecap="round" stroke-linejoin="round"/>
<path d="M650.249 722.375C684.443 715.284 716.208 713.639 751.071 715.875C755.235 716.136 760.136 716.941 761.971 720.697C763.548 723.885 761.948 727.912 759.226 730.215C756.504 732.518 752.941 733.482 749.492 734.356C723.467 740.97 689.579 746.416 662.919 749.615" stroke="#171717" stroke-width="3.225" stroke-linecap="round" stroke-linejoin="round"/>
<path d="M662.921 749.614C689.15 748.06 718.647 747.197 744.865 745.655C750.742 745.303 757.934 745.666 760.657 750.874C762.869 755.117 760.566 760.597 756.732 763.444C752.898 766.291 747.974 767.154 743.232 767.8C718.148 771.238 692.747 771.351 667.414 771.169C665.179 771.158 662.933 771.135 660.698 771.124" stroke="#171717" stroke-width="3.225" stroke-linecap="round" stroke-linejoin="round"/>
<path d="M660.834 770.647C663.034 770.817 665.228 770.991 667.414 771.168C689.378 772.996 710.57 775.604 732.714 777.26C737.944 777.66 744.161 778.701 746.314 783.488C748.084 787.447 745.928 792.28 742.479 794.902C739.03 797.524 734.579 798.384 730.306 799.054C690.871 805.202 651.799 799.325 612.319 793.46" stroke="#171717" stroke-width="3.225" stroke-linecap="round" stroke-linejoin="round"/>
<path d="M855.116 214.859C855.116 293.593 802.416 357.408 737.401 357.408C672.386 357.408 619.675 293.593 619.675 214.859C619.675 136.125 672.384 72.321 737.4 72.321C802.416 72.321 855.116 136.136 855.116 214.859Z" stroke="#171717" stroke-width="3.225" stroke-linecap="round" stroke-linejoin="round"/>
<path d="M650.918 212.045C675.056 212.264 699.142 214.312 722.97 218.171" stroke="#171717" stroke-width="3.225" stroke-linecap="round" stroke-linejoin="round"/>
<path d="M736.73 207.666C738.73 170.296 740.73 132.929 742.73 95.5659" stroke="#171717" stroke-width="3.225" stroke-linecap="round" stroke-linejoin="round"/>
<path d="M738.989 213.566C738.258 213.578 737.531 213.697 736.833 213.918C732.148 215.393 728.933 221.224 730.866 225.887C733.066 231.242 741.145 232.932 745.308 228.905C749.471 224.878 748.882 215.994 740.067 214.134" stroke="#171717" stroke-width="3.225" stroke-linecap="round" stroke-linejoin="round"/>
<path d="M432.948 388.278C431.067 388.711 429.211 389.249 427.389 389.889C426.708 390.138 426.041 390.422 425.389 390.74C422.945 391.839 420.917 393.692 419.603 396.027C418.966 397.196 418.646 398.512 418.674 399.843C418.701 401.175 419.077 402.475 419.762 403.617C421.762 406.601 426.047 407.304 429.462 406.192C430.726 405.752 431.93 405.158 433.047 404.422C434.904 403.138 436.65 401.699 438.266 400.122" stroke="#171717" stroke-width="3.225" stroke-linecap="round" stroke-linejoin="round"/>
<path d="M432.663 403.684C430.815 402.128 429.392 400.128 428.527 397.872C427.662 395.616 427.383 393.177 427.717 390.784" stroke="#171717" stroke-width="3.225" stroke-linecap="round" stroke-linejoin="round"/>
<path d="M230.883 837.9L341.791 792.657" stroke="#171717" stroke-width="3.225" stroke-linecap="round" stroke-linejoin="round"/>
<path d="M260.913 769.433L262.116 769.059L379.037 732.188" stroke="#171717" stroke-width="3.225" stroke-linecap="round" stroke-linejoin="round"/>
<path d="M320.576 690.552L459.518 648.905" stroke="#171717" stroke-width="3.225" stroke-linecap="round" stroke-linejoin="round"/>
<path d="M399.458 619.873L483.943 595.652" stroke="#171717" stroke-width="3.225" stroke-linecap="round" stroke-linejoin="round"/>
<path d="M488.056 173.33C499.75 147.325 511.443 121.319 523.137 95.314" stroke="#171717" stroke-width="3.404" stroke-linecap="round" stroke-linejoin="round"/>
<path d="M500.619 202.577C509.145 197.988 517.289 192.721 524.97 186.826" stroke="#171717" stroke-width="3.404" stroke-linecap="round" stroke-linejoin="round"/>
<path d="M462.768 165.74C461.501 153.641 460.237 141.541 458.975 129.44" stroke="#171717" stroke-width="3.404" stroke-linecap="round" stroke-linejoin="round"/>
<path d="M380.809 193.987C378.501 192.5 375.188 192.292 372.909 193.068C370.63 193.845 368.743 195.479 367.649 197.624C366.554 199.768 366.339 202.255 367.048 204.556C367.757 206.857 369.335 208.791 371.447 209.948C373.559 211.105 376.038 211.393 378.359 210.752C380.68 210.11 382.659 208.59 383.878 206.513C385.096 204.436 385.457 201.966 384.884 199.628C384.311 197.289 382.849 195.266 380.809 193.987Z" fill="url(#paint3_linear_38_4067)" stroke="#171717" stroke-width="3.4"/>
<path d="M281.853 328.448L265.253 313.023" stroke="#171717" stroke-width="3.404" stroke-linecap="round" stroke-linejoin="round"/>
<path d="M265.182 330.714C269.416 323.922 274.434 317.65 280.131 312.028" stroke="#171717" stroke-width="3.404" stroke-linecap="round" stroke-linejoin="round"/>
<path d="M316.416 431.1L301.464 416.69" stroke="#171717" stroke-width="3.404" stroke-linecap="round" stroke-linejoin="round"/>
<path d="M303.334 430.344L313.411 416.264" stroke="#171717" stroke-width="3.404" stroke-linecap="round" stroke-linejoin="round"/>
<path d="M166.911 772.09C153.329 759.757 139.536 747.168 130.211 731.371C120.886 715.574 116.534 695.782 123.127 678.66" stroke="#171717" stroke-width="3.404" stroke-linecap="round" stroke-linejoin="round"/>
<path d="M569.624 812.631C570.072 803.014 570.53 793.324 572.866 783.986C575.202 774.648 579.574 765.571 586.748 759.152C589.289 756.879 592.341 754.666 593.027 751.325C593.757 747.772 591.527 744.376 589.719 741.232C585.618 733.96 583.283 725.825 582.903 717.485C582.522 709.144 584.108 700.831 587.531 693.216" stroke="#171717" stroke-width="3.404" stroke-linecap="round" stroke-linejoin="round"/>
<path d="M389.546 491.508C406.549 496.8 424.111 500.089 441.877 501.308" stroke="#171717" stroke-width="3.404" stroke-linecap="round" stroke-linejoin="round"/>
<path d="M508.571 504.131C513.75 500.8 519.335 498.148 525.189 496.24" stroke="#171717" stroke-width="3.404" stroke-linecap="round" stroke-linejoin="round"/>
<path d="M380.866 607.734C375.966 614.519 368.929 620.169 360.682 621.611C352.435 623.053 343.056 619.448 339.356 611.937C336.316 605.766 337.47 598.351 339.72 591.85C341.97 585.349 345.253 579.15 346.415 572.368C346.383 572.495 380.078 581.644 383.201 582.5C391.15 584.68 392.444 584.226 389.101 592.191C386.96 597.67 384.197 602.886 380.866 607.734Z" stroke="#171717" stroke-width="3.404" stroke-linecap="round" stroke-linejoin="round"/>
<path d="M378.965 580.055L382.031 567.775C382.425 566.199 382.631 564.134 381.215 563.33C380.701 563.103 380.127 563.049 379.58 563.178C379.033 563.306 378.542 563.609 378.183 564.041C377.485 564.924 376.993 565.95 376.743 567.047L365.382 604.074L366.062 602.974" stroke="#171717" stroke-width="3.404" stroke-linecap="round" stroke-linejoin="round"/>
<path d="M538.383 729.616C535.725 725.516 533.066 721.416 530.407 717.316" stroke="#171717" stroke-width="3.404" stroke-linecap="round" stroke-linejoin="round"/>
<path d="M475.853 781.119C478.545 778.113 481.237 775.108 483.93 772.105" stroke="#171717" stroke-width="3.404" stroke-linecap="round" stroke-linejoin="round"/>
<path d="M445.547 738.127L437.407 727.012" stroke="#171717" stroke-width="3.404" stroke-linecap="round" stroke-linejoin="round"/>
<path d="M383.651 767.916L391.117 759.366" stroke="#171717" stroke-width="3.404" stroke-linecap="round" stroke-linejoin="round"/>
<path d="M271.661 697.991L265.684 684.155" stroke="#171717" stroke-width="3.404" stroke-linecap="round" stroke-linejoin="round"/>
<path d="M211.794 722.581L218.734 716.174" stroke="#171717" stroke-width="3.404" stroke-linecap="round" stroke-linejoin="round"/>
<path d="M266.259 610.508L251.286 614.146" stroke="#171717" stroke-width="3.404" stroke-linecap="round" stroke-linejoin="round"/>
<path d="M205.441 639.267C203.308 635.352 201.172 631.436 199.035 627.521" stroke="#171717" stroke-width="3.404" stroke-linecap="round" stroke-linejoin="round"/>
<path d="M256.557 561.373L252.3 546.42" stroke="#171717" stroke-width="3.404" stroke-linecap="round" stroke-linejoin="round"/>
<path d="M316.553 600.28C315.029 596.006 314.467 591.448 314.907 586.931" stroke="#171717" stroke-width="3.404" stroke-linecap="round" stroke-linejoin="round"/>
<path d="M309.579 530.109L319.679 526.78" stroke="#171717" stroke-width="3.404" stroke-linecap="round" stroke-linejoin="round"/>
<path d="M377.346 533.041L374.257 520.979C374.433 520.704 374.967 520.928 374.893 521.246C374.863 521.315 374.813 521.374 374.749 521.414C374.685 521.453 374.61 521.472 374.535 521.468C374.46 521.464 374.387 521.436 374.328 521.39C374.269 521.343 374.226 521.279 374.204 521.207" stroke="#171717" stroke-width="3.404" stroke-linecap="round" stroke-linejoin="round"/>
<path d="M422.646 527.6L432.773 524.87" stroke="#171717" stroke-width="3.404" stroke-linecap="round" stroke-linejoin="round"/>
<path d="M427.516 571.477C425.985 568.141 425.381 564.454 425.768 560.804" stroke="#171717" stroke-width="3.404" stroke-linecap="round" stroke-linejoin="round"/>
<path d="M510.118 539.808L520.336 533.522" stroke="#171717" stroke-width="3.404" stroke-linecap="round" stroke-linejoin="round"/>
<path d="M573.96 536.192L569.605 523.05" stroke="#171717" stroke-width="3.404" stroke-linecap="round" stroke-linejoin="round"/>
<path d="M530.993 606.751C529.575 602.834 528.157 598.917 526.738 595" stroke="#171717" stroke-width="3.404" stroke-linecap="round" stroke-linejoin="round"/>
<path d="M584.908 590.548C588.828 588.957 592.748 587.367 596.668 585.779" stroke="#171717" stroke-width="3.404" stroke-linecap="round" stroke-linejoin="round"/>
<path d="M595.647 653.713C594.224 649.086 592.8 644.459 591.376 639.832" stroke="#171717" stroke-width="3.404" stroke-linecap="round" stroke-linejoin="round"/>
<path d="M523.579 660.651C526.196 658.485 529.318 657.016 532.655 656.38" stroke="#171717" stroke-width="3.404" stroke-linecap="round" stroke-linejoin="round"/>
<path d="M484.167 663.294L481.667 654.32" stroke="#171717" stroke-width="3.404" stroke-linecap="round" stroke-linejoin="round"/>
<path d="M544.5 787.629C541.438 784.012 538.933 779.959 537.067 775.603" stroke="#171717" stroke-width="3.404" stroke-linecap="round" stroke-linejoin="round"/>
<path d="M361.036 388.522C357.325 387.737 353.843 386.112 350.858 383.772C347.872 381.432 345.463 378.438 343.814 375.022" stroke="#171717" stroke-width="3.404" stroke-linecap="round" stroke-linejoin="round"/>
<path d="M478.4 254.118C480.338 246.126 480.98 237.875 480.3 229.68" stroke="#171717" stroke-width="3.404" stroke-linecap="round" stroke-linejoin="round"/>
<path d="M500 397.5C506.535 391.096 510.507 382.526 511.169 373.4" stroke="#171717" stroke-width="3.404" stroke-linecap="round" stroke-linejoin="round"/>
<path d="M713.379 825.726C734.279 826.463 755.09 814.077 764.406 795.347" stroke="#171717" stroke-width="3.404" stroke-linecap="round" stroke-linejoin="round"/>
<path d="M650.409 567.192C649.007 554.027 643.015 541.776 633.484 532.586" stroke="#171717" stroke-width="3.404" stroke-linecap="round" stroke-linejoin="round"/>
<path d="M734.246 237.967C736.377 238.877 738.698 239.251 741.006 239.057C743.315 238.863 745.541 238.107 747.49 236.854C749.439 235.601 751.051 233.89 752.186 231.87C753.321 229.85 753.944 227.583 754 225.267" stroke="#171717" stroke-width="3.404" stroke-linecap="round" stroke-linejoin="round"/>
<path d="M742.937 86.738L742.076 78.738" stroke="#171717" stroke-width="3.404" stroke-linecap="round" stroke-linejoin="round"/>
<path d="M625.283 214.862L637.295 212.462" stroke="#171717" stroke-width="3.404" stroke-linecap="round" stroke-linejoin="round"/>
<path d="M731.266 343.719C729.947 338.808 730.397 333.591 732.536 328.978" stroke="#171717" stroke-width="3.404" stroke-linecap="round" stroke-linejoin="round"/>
<path d="M831.113 212.546L842.32 210.122" stroke="#171717" stroke-width="3.404" stroke-linecap="round" stroke-linejoin="round"/>
<path d="M373.758 92.7309C374.44 84.6832 373.291 76.5856 370.398 69.0449" stroke="#171717" stroke-width="3.404" stroke-linecap="round" stroke-linejoin="round"/>
<path d="M328.028 146.165C321.695 140.562 317.682 132.797 316.775 124.39" stroke="#171717" stroke-width="3.404" stroke-linecap="round" stroke-linejoin="round"/>
<path d="M357.73 69.063C355.918 61.011 352.88 51.945 345.22 48.872C339.34 46.512 332.392 48.704 327.587 52.834C321.099 58.41 317.843 67.086 317.401 75.634C316.959 84.182 319.067 92.658 321.842 100.752C330.582 126.252 345.817 148.778 361.262 170.622C363.695 174.063 366.794 181.666 369.185 176.013C371.001 171.72 368.618 162.629 368.358 158.034C367.558 143.857 366.607 129.684 365.118 115.561C363.559 99.9315 361.092 84.4059 357.73 69.063V69.063Z" fill="url(#paint4_linear_38_4067)" stroke="#171717" stroke-width="3.4"/>
<path fill-rule="evenodd" clip-rule="evenodd" d="M465.053 262.723C468.045 241.975 468.007 220.903 464.94 200.167C464.499 197.206 463.967 194.152 462.334 191.634C460.701 189.116 457.694 187.245 454.756 187.845C451.194 188.586 449.254 192.353 447.915 195.745C442.525 209.436 438.966 223.779 437.33 238.402C437.02 241.227 434.936 245.095 432.52 243.609C431.465 242.951 431.193 241.567 431.034 240.342C430.127 233.482 429.219 226.626 428.311 219.774C427.914 216.802 427.494 213.739 425.997 211.152C424.5 208.565 421.629 206.52 418.657 206.92C413.302 207.635 411.873 214.634 411.782 220.046C411.65 227.136 411.522 234.227 411.396 241.318C411.339 243.973 410.693 247.388 408.072 247.853C406.562 248.115 405.24 247.209 403.925 246.308C403.471 245.997 403.018 245.687 402.558 245.425C397.442 242.509 390.601 246.072 387.878 251.29C385.155 256.508 385.416 262.713 385.745 268.59C382.542 266.504 378.736 265.544 374.927 265.861C371.118 266.178 367.523 267.754 364.709 270.34C361.895 272.927 360.022 276.377 359.385 280.145C358.749 283.914 359.385 287.788 361.194 291.155C356.657 290.959 352.201 292.405 348.644 295.228C345.087 298.051 342.667 302.063 341.829 306.526C340.99 310.989 341.789 315.605 344.078 319.527C346.368 323.449 349.995 326.414 354.294 327.878C347.43 334.287 343.187 343.728 343.981 353.087C344.775 362.446 351.049 371.399 359.943 374.415C368.837 377.431 381.43 373.12 385.843 364.815L386.977 364.475C385.824 360.693 384.674 356.908 383.528 353.119C379.602 340.208 375.666 326.368 379.591 313.457C384.413 297.574 399.91 287.375 415.396 281.362C420.729 279.295 426.609 277.479 432.603 275.626C443.455 272.273 454.682 268.804 463.714 263.528C464.159 263.273 464.593 263.006 465.026 262.739L465.053 262.723ZM460.292 197.672C460.164 196.741 459.306 196.089 458.374 196.217C457.443 196.345 456.792 197.203 456.919 198.134C459.032 213.543 459.536 229.13 458.423 244.643C458.356 245.581 459.061 246.395 459.999 246.463C460.936 246.53 461.751 245.824 461.818 244.887C462.948 229.138 462.436 213.315 460.292 197.672Z" fill="#171717"/>
<g opacity="0.1">
<path d="M415.454 280.193C404.386 282.599 394.647 290.641 388.049 299.639C384.389 304.684 381.536 310.267 379.593 316.19C377.127 323.61 377.35 332.513 378.053 340.214C379.599 357.171 385.291 372.901 390.594 388.956C395.926 405.1 401.659 421.118 407.219 437.185C409.279 443.137 411.412 449.058 413.519 454.991C415.245 459.843 417.189 465.564 417.138 469.679C417.118 471.198 417.63 469.686 416.884 470.836C417.398 470.121 417.864 469.373 418.278 468.597C418.45 468.132 419.713 468.59 418.562 468.474C418.066 468.554 417.581 468.692 417.116 468.884C417.137 468.884 415.456 469.243 416.363 469.084C415.696 469.102 415.031 469.163 414.371 469.265C409.785 469.565 405.191 469.099 400.61 469.355C394.148 469.715 388.755 472.272 386.754 478.946C386.275 480.71 386.014 482.526 385.978 484.354C385.931 485.544 386.478 487.589 386.034 488.681C386.439 487.681 385.114 488.457 384.086 488.703C378.974 489.928 372.709 489.185 367.259 489.211C360.351 489.243 353.459 489.474 346.559 489.76C317.343 490.97 287.643 494.873 260.321 505.76C244.349 512.021 229.644 521.127 216.921 532.636C186.521 559.795 161.057 596.247 155.769 637.402C152.627 661.861 158.65 686.766 170.781 708.071C174.543 714.535 178.77 720.715 183.43 726.564C187.485 731.754 190.53 737.496 194.33 742.871C203.116 755.311 216.307 762.502 229.495 769.476C236.614 773.241 243.733 776.991 250.637 781.144C263.33 788.782 274.951 768.85 262.229 761.312C249.318 753.661 235.329 747.777 222.808 739.483C218.116 736.423 214.157 732.364 211.215 727.596C207.632 721.933 203.763 716.456 199.622 711.187C185.211 692.787 176.488 670.667 176.822 648.019C177.108 628.533 183.382 609.687 193.056 592.358C201.884 576.585 213.119 562.287 226.356 549.98C229.195 547.289 232.112 544.683 235.106 542.162C236.354 541.115 237.624 540.097 238.891 539.074C240.345 537.9 237.918 539.788 239.362 538.701C240.033 538.201 240.703 537.691 241.381 537.201C247.227 533.007 253.481 529.415 260.049 526.479C284.944 515.036 312.891 510.554 340.049 509.019C353.289 508.271 366.449 509.225 379.668 508.974C385.658 508.861 392.154 507.96 397.268 504.598C402.74 500.998 408.105 492.686 406.178 485.798C405.634 483.853 408.343 482.276 403.478 487.007C402.787 487.68 399.853 490.776 401.278 489.535C400.398 490.302 399.41 489.66 401.436 489.685C403.636 489.713 405.831 489.724 408.027 489.743C413.133 489.785 418.577 489.715 423.507 488.258C436.981 484.276 438.937 471.511 436.14 459.406C433.395 447.524 428.248 435.874 424.268 424.374C418.812 408.609 413.429 392.819 407.75 377.132C402.478 362.57 395.784 347.28 394.05 331.779C392.731 319.965 393.344 304.301 401.356 294.673C405.4 289.973 410.789 286.628 416.795 285.09C419.955 284.231 418.621 279.519 415.449 280.208L415.454 280.193Z" fill="#171717"/>
</g>
<g opacity="0.1">
<path d="M343.743 802.707C372.025 806.707 401.168 806.107 429.7 806.871C458.3 807.634 486.9 808.374 515.5 809.091C529.957 809.437 544.336 809.94 558.766 810.891C571.657 811.74 586.859 812.891 598.966 807.577C604.22 805.289 609.066 802.16 613.314 798.314C614.762 796.966 615.565 795.867 617.533 795.381C620.654 794.61 624.51 794.819 627.705 794.699C640.638 794.212 653.274 795.558 666.058 797.332C680.07 799.277 694.151 801.305 708.326 801.38C715.492 801.429 722.651 800.88 729.726 799.74C733.183 799.245 736.598 798.499 739.946 797.506C743.454 796.389 745.156 794.729 747.331 791.874C748.712 790.06 747.213 787.3 745.258 786.774C739.258 785.174 734.381 787.336 728.397 788.414C722.055 789.491 715.63 790.002 709.197 789.939C696.661 789.939 684.186 788.384 671.788 786.673C658.91 784.895 646.07 782.896 633.179 781.243C621.906 779.797 609.201 778.272 598.979 784.543C594.921 787.035 591.596 789.652 586.862 790.526C580.195 791.757 573.249 791.641 566.501 791.37C552.807 790.819 539.182 789.67 525.471 789.317C497.538 788.604 469.604 787.938 441.671 787.317C425.71 786.953 409.747 786.47 393.784 786.232C377.849 785.994 361.77 785.321 345.898 786.776C341.888 787.144 338.437 789.576 337.933 793.808C337.508 797.38 339.703 802.134 343.742 802.708L343.743 802.707Z" fill="#171717"/>
</g>
<g opacity="0.1">
<path d="M333.133 673.821C339.896 668.516 345.244 661.579 351.633 655.828C357.706 650.37 364.06 645.234 370.67 640.44C384.097 630.686 398.251 621.991 411.791 612.401C424.961 603.073 437.704 592.842 448.335 580.636C453.507 574.802 458.064 568.451 461.935 561.684C463.989 558.105 465.761 554.37 467.235 550.515C468.76 546.389 468.706 542.876 469.053 538.637C469.367 534.796 463.517 533.327 461.803 536.673C459.941 540.307 457.635 543.653 455.85 547.392C454.319 550.662 452.624 553.852 450.771 556.95C446.678 563.613 441.912 569.838 436.549 575.528C425.456 587.415 412.49 597.328 399.125 606.503C385.619 615.777 371.779 624.573 358.783 634.568C346.731 643.837 331.843 655.168 326.235 669.807C324.58 674.127 330.312 676.031 333.129 673.821H333.133Z" fill="#171717"/>
</g>
</g>
<defs>
<linearGradient id="paint0_linear_38_4067" x1="442.096" y1="537.836" x2="442.096" y2="619.873" gradientUnits="userSpaceOnUse">
<stop stop-color="#FFB800"/>
<stop offset="1" stop-color="#FF7F0A"/>
</linearGradient>
<linearGradient id="paint1_linear_38_4067" x1="361.175" y1="648.905" x2="361.175" y2="769.059" gradientUnits="userSpaceOnUse">
<stop stop-color="#FFB800"/>
<stop offset="1" stop-color="#FF7F0A"/>
</linearGradient>
<linearGradient id="paint2_linear_38_4067" x1="285.368" y1="792.655" x2="285.368" y2="927.898" gradientUnits="userSpaceOnUse">
<stop stop-color="#FFB800"/>
<stop offset="1" stop-color="#FF7F0A"/>
</linearGradient>
<linearGradient id="paint3_linear_38_4067" x1="375.894" y1="192.626" x2="375.894" y2="211.086" gradientUnits="userSpaceOnUse">
<stop stop-color="#FFB800"/>
<stop offset="1" stop-color="#FF7F0A"/>
</linearGradient>
<linearGradient id="paint4_linear_38_4067" x1="343.602" y1="47.9028" x2="343.602" y2="178.041" gradientUnits="userSpaceOnUse">
<stop stop-color="#FFB800"/>
<stop offset="1" stop-color="#FF7F0A"/>
</linearGradient>
<clipPath id="clip0_38_4067">
<rect width="960" height="960" fill="white"/>
</clipPath>
</defs>
</svg>
